<?xml version="1.0" standalone="no"?>
<!DOCTYPE svg PUBLIC "-//W3C//DTD SVG 20010904//EN"
 "http://www.w3.org/TR/2001/REC-SVG-20010904/DTD/svg10.dtd">
<svg version="1.0" xmlns="http://www.w3.org/2000/svg"
 width="300.000000pt" height="261.000000pt" viewBox="0 0 300.000000 261.000000"
 preserveAspectRatio="xMidYMid meet">

<g transform="translate(0.000000,261.000000) scale(0.100000,-0.100000)"
fill="#000000" stroke="none">
<path d="M1403 2595 c-79 -22 -130 -51 -185 -106 -52 -52 -94 -129 -104 -191
l-7 -38 -203 0 -204 0 0 -735 0 -736 598 3 597 3 60 24 c167 67 288 198 330
356 12 50 15 144 15 572 l0 513 -203 0 -202 0 -13 53 c-27 114 -125 224 -239
267 -75 28 -173 34 -240 15z m236 -121 c29 -15 68 -46 87 -68 37 -43 69 -117
61 -139 -3 -8 -27 -17 -60 -21 -31 -3 -94 -20 -142 -37 l-87 -30 -82 29 c-45
17 -104 33 -132 37 -89 12 -86 9 -64 66 49 131 158 203 296 196 54 -3 82 -10
123 -33z m-336 -290 c40 -9 100 -29 134 -44 l62 -28 68 28 c118 49 198 60 448
60 l225 0 0 -484 c0 -447 -1 -489 -19 -545 -34 -109 -125 -222 -217 -269 -101
-51 -108 -52 -701 -52 l-553 0 0 675 0 675 241 0 c185 0 257 -4 312 -16z"/>
<path d="M1065 2017 c-98 -26 -183 -85 -233 -164 -148 -232 -10 -539 262 -583
59 -9 87 -7 164 12 l44 11 97 -97 97 -97 96 98 96 97 71 -18 c176 -46 354 41
438 213 25 50 28 67 28 156 0 87 -3 107 -26 156 -111 237 -413 302 -602 129
-29 -26 -62 -64 -72 -84 -11 -20 -22 -36 -25 -36 -3 0 -18 20 -33 45 -81 128
-258 199 -402 162z m217 -75 c65 -32 120 -83 153 -143 28 -50 30 -62 30 -154
0 -79 -4 -107 -19 -135 -38 -72 -86 -119 -154 -152 -209 -103 -448 36 -460
269 -8 152 73 274 218 327 62 22 172 16 232 -12z m703 -3 c70 -33 139 -106
165 -176 29 -77 25 -187 -8 -255 -96 -196 -348 -245 -515 -99 -20 18 -51 61
-68 96 -85 173 1 382 184 447 70 25 174 20 242 -13z m-467 -484 c11 -24 10
-25 -18 -25 -34 0 -35 2 -18 30 17 26 22 25 36 -5z m86 -105 c20 -14 36 -30
36 -35 0 -6 -33 -43 -73 -83 l-72 -72 -75 75 c-72 72 -73 75 -56 94 52 57 171
68 240 21z"/>
<path d="M1189 1832 c21 -39 13 -91 -18 -123 -40 -40 -88 -40 -134 1 l-35 30
-11 -46 c-7 -26 -9 -61 -5 -78 36 -167 219 -228 339 -112 80 77 85 189 13 272
-36 41 -69 59 -122 69 -36 7 -38 7 -27 -13z"/>
<path d="M1814 1819 c19 -45 10 -84 -26 -114 -42 -35 -88 -33 -132 5 l-34 31
-11 -49 c-31 -148 96 -276 241 -241 214 51 202 354 -15 394 l-37 7 14 -33z"/>
</g>
</svg>
